<?xml version="1.0" encoding="UTF-8" standalone="no"?>
<!DOCTYPE svg PUBLIC "-//W3C//DTD SVG 1.1//EN" "http://www.w3.org/Graphics/SVG/1.1/DTD/svg11.dtd">
<svg width="100%" height="100%" viewBox="0 0 996 353" version="1.1" xmlns="http://www.w3.org/2000/svg" xmlns:xlink="http://www.w3.org/1999/xlink" xml:space="preserve" xmlns:serif="http://www.serif.com/" style="fill-rule:evenodd;clip-rule:evenodd;stroke-linejoin:round;stroke-miterlimit:2;">
  <g transform="matrix(1,0,0,1,-7.53442,0.00142383)">
    <g transform="matrix(1,0,0,1,-131,-1798.54)">
      <g transform="matrix(1,0,0,1,61.49,1759)">
        <g transform="matrix(1,0,0,1,69.51,320)">
          <g>
            <path d="M158.006,-81.855L158.006,-69.081C158.006,-63.707 157.882,-57.878 157.634,-51.594C157.386,-45.31 156.848,-38.985 156.021,-32.618C155.195,-26.252 153.913,-20.505 152.177,-15.379C150.44,-10.253 148.249,-6.036 145.604,-2.729C142.958,0.579 139.568,2.232 135.434,2.232C131.796,2.232 129.026,0.703 127.124,-2.356C125.222,-5.416 123.858,-9.012 123.031,-13.146C122.204,-17.281 121.75,-21.497 121.667,-25.797C121.584,-30.096 121.543,-33.486 121.543,-35.967C121.543,-43.408 121.791,-50.684 122.287,-57.795C122.783,-64.906 123.031,-72.182 123.031,-79.623L123.031,-84.088C123.031,-86.238 122.866,-88.387 122.535,-90.537C122.204,-92.687 121.667,-94.589 120.923,-96.242C120.179,-97.896 119.063,-98.723 117.574,-98.723C114.598,-98.723 112.2,-97.193 110.381,-94.134C108.562,-91.075 107.074,-87.478 105.916,-83.344C104.758,-79.21 103.932,-75.117 103.436,-71.065C102.939,-67.014 102.609,-63.996 102.443,-62.012C102.113,-59.862 101.823,-56.637 101.575,-52.338C101.327,-48.038 100.996,-43.326 100.583,-38.199C100.17,-33.073 99.508,-27.823 98.599,-22.448C97.689,-17.074 96.532,-12.196 95.126,-7.813C93.72,-3.431 91.943,0.165 89.793,2.977C87.643,5.788 84.997,7.193 81.855,7.193C77.887,7.193 74.827,5.457 72.678,1.984C70.528,-1.488 68.957,-5.54 67.965,-10.17C66.973,-14.8 66.353,-19.513 66.104,-24.309C65.856,-29.104 65.732,-32.825 65.732,-35.471C65.732,-38.282 65.774,-41.01 65.856,-43.656C65.939,-46.302 65.98,-49.031 65.98,-51.842L65.98,-57.547C65.98,-60.193 65.939,-63.128 65.856,-66.353C65.774,-69.577 65.608,-72.926 65.36,-76.398C65.112,-79.871 64.74,-83.054 64.244,-85.948C63.748,-88.842 63.004,-91.199 62.012,-93.018C61.02,-94.837 59.862,-95.746 58.539,-95.746C56.389,-95.746 54.405,-94.382 52.586,-91.653C50.767,-88.925 49.196,-85.7 47.873,-81.979C46.55,-78.259 45.517,-74.579 44.772,-70.941C44.028,-67.303 43.656,-64.658 43.656,-63.004L43.656,-61.516C43.656,-53.578 44.152,-45.806 45.145,-38.199C46.137,-30.592 46.633,-22.82 46.633,-14.883C46.633,-10.253 45.145,-5.994 42.168,-2.108C39.191,1.778 35.057,3.721 29.766,3.721C25.962,3.721 22.82,2.274 20.34,-0.62C17.859,-3.514 15.792,-7.276 14.139,-11.906C12.485,-16.536 11.203,-21.621 10.294,-27.161C9.384,-32.701 8.764,-38.158 8.434,-43.532C8.103,-48.907 7.896,-53.785 7.813,-58.167C7.731,-62.549 7.689,-65.815 7.689,-67.965C7.689,-70.445 7.648,-74.083 7.565,-78.879C7.483,-83.674 7.565,-88.883 7.813,-94.506C8.062,-100.128 8.516,-105.875 9.178,-111.745C9.839,-117.616 10.914,-122.949 12.402,-127.744C13.891,-132.54 15.834,-136.467 18.231,-139.526C20.629,-142.586 23.73,-144.115 27.533,-144.115C31.833,-144.115 35.347,-142.958 38.075,-140.643C40.804,-138.327 42.168,-134.855 42.168,-130.225C42.168,-129.232 42.127,-128.24 42.044,-127.248C41.961,-126.256 41.837,-125.346 41.672,-124.52C43.491,-127.165 45.723,-129.853 48.369,-132.581C51.015,-135.31 53.868,-137.79 56.927,-140.022C59.986,-142.255 63.252,-144.074 66.725,-145.479C70.197,-146.885 73.67,-147.588 77.143,-147.588C80.45,-147.588 83.426,-146.678 86.072,-144.859C88.718,-143.04 91.033,-140.767 93.018,-138.038C95.002,-135.31 96.656,-132.374 97.979,-129.232C99.301,-126.09 100.211,-123.114 100.707,-120.303C102.361,-123.279 104.386,-126.297 106.784,-129.356C109.182,-132.416 111.786,-135.103 114.598,-137.418C117.409,-139.733 120.509,-141.635 123.899,-143.123C127.289,-144.611 130.803,-145.355 134.441,-145.355C137.914,-145.355 140.891,-144.115 143.371,-141.635C145.852,-139.154 148.001,-135.971 149.82,-132.085C151.639,-128.199 153.045,-123.817 154.037,-118.938C155.029,-114.06 155.856,-109.265 156.518,-104.552C157.179,-99.839 157.592,-95.457 157.758,-91.405C157.923,-87.354 158.006,-84.171 158.006,-81.855Z" style="fill:rgb(12,235,115);fill-rule:nonzero;"/>
            <path d="M228.203,72.182C224.234,72.182 219.728,71.562 214.685,70.321C209.641,69.081 204.887,67.303 200.422,64.988C195.957,62.673 192.195,59.862 189.136,56.555C186.076,53.247 184.547,49.444 184.547,45.145C184.547,43.491 184.96,41.837 185.787,40.184C186.614,38.53 187.73,37.083 189.136,35.843C190.541,34.603 192.071,33.61 193.725,32.866C195.378,32.122 197.115,31.75 198.934,31.75C200.918,31.75 202.861,32.039 204.763,32.618C206.664,33.197 208.607,33.9 210.592,34.727C212.742,35.553 214.85,36.298 216.917,36.959C218.984,37.62 221.175,37.951 223.49,37.951C227.624,37.951 231.221,36.546 234.28,33.734C237.34,30.923 239.944,27.244 242.094,22.696C244.243,18.149 245.98,13.105 247.303,7.565C248.626,2.026 249.659,-3.473 250.403,-8.93C251.147,-14.387 251.685,-19.513 252.016,-24.309C252.346,-29.104 252.594,-32.99 252.76,-35.967C246.972,-27.202 241.226,-20.464 235.521,-15.751C229.815,-11.038 222.829,-8.682 214.561,-8.682C208.277,-8.682 202.778,-10.005 198.065,-12.65C193.353,-15.296 189.342,-18.769 186.035,-23.068C182.728,-27.368 179.999,-32.287 177.85,-37.827C175.7,-43.367 174.088,-49.113 173.013,-55.066C171.938,-61.02 171.235,-66.849 170.904,-72.554C170.574,-78.259 170.574,-83.509 170.904,-88.305C171.07,-91.943 171.524,-96.697 172.269,-102.567C173.013,-108.438 174.212,-114.184 175.865,-119.807C177.519,-125.429 179.834,-130.183 182.811,-134.069C185.787,-137.955 189.673,-139.733 194.469,-139.402C197.611,-139.237 200.174,-137.873 202.158,-135.31C204.143,-132.746 205.755,-129.563 206.995,-125.76C208.235,-121.956 209.145,-117.781 209.724,-113.233C210.302,-108.686 210.674,-104.18 210.84,-99.715C211.005,-95.25 211.047,-91.157 210.964,-87.437C210.881,-83.716 210.84,-80.863 210.84,-78.879C210.84,-76.068 210.923,-73.257 211.088,-70.445C211.253,-67.634 211.832,-65.112 212.824,-62.88C213.816,-60.647 215.346,-58.87 217.413,-57.547C219.48,-56.224 222.415,-55.563 226.219,-55.563C230.518,-55.563 233.95,-56.637 236.513,-58.787C239.076,-60.937 240.978,-63.624 242.218,-66.849C243.458,-70.073 244.243,-73.546 244.574,-77.267C244.905,-80.987 245.07,-84.501 245.07,-87.809L245.07,-96.242C245.07,-99.549 245.112,-103.022 245.194,-106.66C245.277,-110.298 245.608,-113.895 246.187,-117.45C246.765,-121.006 247.675,-124.23 248.915,-127.124C250.155,-130.018 251.809,-132.374 253.876,-134.193C255.943,-136.012 258.63,-136.922 261.938,-136.922C266.072,-136.922 269.627,-135.31 272.604,-132.085C275.58,-128.86 278.102,-124.644 280.169,-119.435C282.236,-114.226 283.89,-108.479 285.13,-102.195C286.37,-95.911 287.321,-89.669 287.982,-83.468C288.644,-77.267 289.099,-71.562 289.347,-66.353C289.595,-61.144 289.719,-57.051 289.719,-54.074C289.719,-47.129 289.471,-39.233 288.975,-30.386C288.479,-21.539 287.528,-12.444 286.122,-3.101C284.716,6.243 282.608,15.42 279.797,24.433C276.986,33.445 273.306,41.507 268.759,48.617C264.211,55.728 258.63,61.433 252.016,65.732C245.401,70.032 237.464,72.182 228.203,72.182Z" style="fill:rgb(12,235,115);fill-rule:nonzero;"/>
          </g>
        </g>
        <g transform="matrix(1,0,0,1,369.51,321)">
          <g>
            <path d="M117.539,-147.173C117.539,-135.718 114.717,-125.3 109.072,-115.92C103.428,-106.541 95.874,-98.696 86.411,-92.388C91.392,-91.392 95.708,-89.69 99.36,-87.283C103.013,-84.875 106.042,-81.929 108.45,-78.442C110.857,-74.956 112.683,-71.013 113.928,-66.614C115.173,-62.214 115.796,-57.607 115.796,-52.793C115.796,-43.33 113.596,-35.071 109.197,-28.015C104.797,-20.959 99.111,-15.149 92.139,-10.583C85.166,-6.018 77.405,-2.615 68.855,-0.374C60.305,1.868 51.797,2.988 43.33,2.988C38.682,2.988 34.033,2.656 29.385,1.992C24.736,1.328 20.337,0.166 16.187,-1.494C14.692,-1.992 13.447,-4.026 12.451,-7.595C11.455,-11.165 10.667,-15.522 10.085,-20.669C9.504,-25.815 9.048,-31.377 8.716,-37.354C8.384,-43.33 8.135,-49.058 7.969,-54.536C7.803,-60.015 7.72,-64.829 7.72,-68.979L7.72,-95.251C7.72,-101.145 7.886,-106.997 8.218,-112.808C8.218,-114.302 8.259,-116.626 8.342,-119.78C8.425,-122.935 8.508,-126.462 8.591,-130.364C8.674,-134.265 8.84,-138.374 9.089,-142.69C9.338,-147.007 9.67,-151.033 10.085,-154.768C10.5,-158.503 11.082,-161.699 11.829,-164.355C12.576,-167.012 13.447,-168.672 14.443,-169.336C18.262,-171.826 22.495,-174.192 27.144,-176.433C31.792,-178.674 36.606,-180.625 41.587,-182.285C46.567,-183.945 51.548,-185.273 56.528,-186.27C61.509,-187.266 66.24,-187.764 70.723,-187.764C76.865,-187.764 82.8,-186.892 88.528,-185.149C94.255,-183.406 99.236,-180.791 103.469,-177.305C107.703,-173.818 111.106,-169.543 113.679,-164.48C116.252,-159.417 117.539,-153.647 117.539,-147.173ZM76.201,-133.975C76.201,-136.797 75.33,-138.872 73.586,-140.2C71.843,-141.528 69.561,-142.192 66.738,-142.192C64.414,-142.192 61.965,-141.694 59.392,-140.698C56.819,-139.702 54.619,-138.374 52.793,-136.714C52.295,-136.216 51.838,-134.805 51.423,-132.48C51.008,-130.156 50.676,-127.542 50.427,-124.636C50.178,-121.731 50.012,-118.992 49.929,-116.418C49.846,-113.845 49.805,-112.144 49.805,-111.313L49.805,-109.695C49.805,-108.948 49.846,-108.159 49.929,-107.329C50.012,-106.499 50.137,-105.752 50.303,-105.088C50.469,-104.424 50.718,-104.092 51.05,-104.092C53.872,-104.092 56.777,-105.129 59.766,-107.205C62.754,-109.28 65.452,-111.853 67.859,-114.924C70.266,-117.996 72.258,-121.274 73.835,-124.761C75.413,-128.247 76.201,-131.318 76.201,-133.975ZM75.205,-62.007C75.205,-64.829 74.209,-66.821 72.217,-67.983C70.225,-69.146 67.983,-69.727 65.493,-69.727C63.169,-69.727 60.72,-69.187 58.147,-68.108C55.574,-67.029 53.457,-65.742 51.797,-64.248C51.299,-63.916 50.925,-63.086 50.676,-61.758C50.427,-60.43 50.261,-58.977 50.178,-57.4C50.095,-55.823 50.012,-54.329 49.929,-52.917C49.846,-51.506 49.805,-50.552 49.805,-50.054L49.805,-48.062C49.805,-47.065 49.846,-46.028 49.929,-44.949C50.012,-43.87 50.178,-42.874 50.427,-41.96C50.676,-41.047 50.967,-40.591 51.299,-40.591C53.623,-40.591 56.196,-41.255 59.019,-42.583C61.841,-43.911 64.456,-45.571 66.863,-47.563C69.27,-49.556 71.262,-51.838 72.839,-54.412C74.417,-56.985 75.205,-59.517 75.205,-62.007Z" style="fill:rgb(17,72,101);fill-rule:nonzero;"/>
            <path d="M237.817,-71.221C237.817,-62.09 236.904,-53.042 235.078,-44.077C233.252,-35.112 230.181,-27.102 225.864,-20.046C221.548,-12.991 215.779,-7.305 208.557,-2.988C201.335,1.328 192.329,3.486 181.538,3.486C170.913,3.486 162.031,1.37 154.893,-2.864C147.754,-7.097 142.068,-12.7 137.834,-19.673C133.601,-26.646 130.613,-34.531 128.87,-43.33C127.126,-52.129 126.255,-61.094 126.255,-70.225C126.255,-80.186 127.417,-90.063 129.741,-99.858C130.239,-102.515 131.194,-106.208 132.605,-110.94C134.016,-115.671 135.842,-120.32 138.083,-124.885C140.325,-129.451 142.898,-133.394 145.803,-136.714C148.708,-140.034 151.904,-141.694 155.391,-141.694C158.711,-141.694 161.367,-140.781 163.359,-138.955C165.352,-137.129 166.929,-134.846 168.091,-132.107C169.253,-129.368 170,-126.462 170.332,-123.391C170.664,-120.32 170.83,-117.539 170.83,-115.049C170.83,-111.23 170.54,-107.495 169.958,-103.843C169.377,-100.19 168.755,-96.538 168.091,-92.886C167.427,-87.905 166.804,-82.925 166.223,-77.944C165.642,-72.964 165.352,-67.983 165.352,-63.003C165.352,-60.513 165.476,-57.732 165.725,-54.661C165.974,-51.589 166.597,-48.643 167.593,-45.82C168.589,-42.998 170,-40.632 171.826,-38.723C173.652,-36.814 176.226,-35.859 179.546,-35.859C183.862,-35.859 187.307,-37.021 189.88,-39.346C192.454,-41.67 194.363,-44.575 195.608,-48.062C196.853,-51.548 197.642,-55.283 197.974,-59.268C198.306,-63.252 198.472,-66.904 198.472,-70.225C198.472,-77.529 197.974,-84.709 196.978,-91.765C195.981,-98.821 195.068,-106.001 194.238,-113.306C194.072,-114.136 193.989,-115.298 193.989,-116.792C193.989,-119.282 194.404,-121.772 195.234,-124.263C196.064,-126.753 197.227,-128.994 198.721,-130.986C200.215,-132.979 202.041,-134.597 204.199,-135.842C206.357,-137.087 208.765,-137.71 211.421,-137.71C215.073,-137.71 218.311,-136.423 221.133,-133.85C223.955,-131.277 226.321,-127.957 228.23,-123.889C230.139,-119.822 231.716,-115.256 232.961,-110.193C234.207,-105.129 235.203,-100.149 235.95,-95.251C236.697,-90.354 237.195,-85.747 237.444,-81.431C237.693,-77.114 237.817,-73.711 237.817,-71.221Z" style="fill:rgb(17,72,101);fill-rule:nonzero;"/>
            <path d="M370.796,-82.178C370.796,-77.363 370.422,-71.926 369.675,-65.867C368.928,-59.807 367.766,-53.623 366.189,-47.314C364.612,-41.006 362.537,-34.863 359.963,-28.887C357.39,-22.91 354.236,-17.556 350.5,-12.825C346.765,-8.093 342.449,-4.316 337.551,-1.494C332.654,1.328 326.968,2.739 320.493,2.739C313.687,2.739 307.502,1.162 301.941,-1.992C296.379,-5.146 291.606,-9.463 287.622,-14.941C287.124,-10.459 285.298,-6.516 282.144,-3.113C278.989,0.291 275.005,1.992 270.19,1.992C267.368,1.992 265.002,0.581 263.093,-2.241C261.184,-5.063 259.648,-8.674 258.486,-13.074C257.324,-17.473 256.453,-22.329 255.872,-27.642C255.291,-32.954 254.917,-38.101 254.751,-43.081C254.585,-48.062 254.502,-52.544 254.502,-56.528L254.502,-64.995C254.502,-70.64 254.543,-76.284 254.626,-81.929C254.709,-87.573 254.834,-93.301 255,-99.111C255,-101.934 254.958,-106.167 254.875,-111.812C254.792,-117.456 254.834,-123.723 255,-130.613C255.166,-137.502 255.54,-144.558 256.121,-151.78C256.702,-159.001 257.739,-165.601 259.233,-171.577C260.728,-177.554 262.803,-182.451 265.459,-186.27C268.115,-190.088 271.519,-192.08 275.669,-192.246C278.989,-192.246 281.812,-191.084 284.136,-188.76C286.46,-186.436 288.411,-183.364 289.988,-179.546C291.565,-175.728 292.81,-171.453 293.723,-166.721C294.636,-161.99 295.3,-157.258 295.715,-152.527C296.13,-147.795 296.379,-143.313 296.462,-139.08C296.545,-134.846 296.587,-131.401 296.587,-128.745C296.587,-128.247 296.545,-127.126 296.462,-125.383C296.379,-123.64 296.338,-121.772 296.338,-119.78L296.338,-111.812C297.832,-114.966 299.99,-118.037 302.813,-121.025C305.635,-124.014 308.789,-126.67 312.275,-128.994C315.762,-131.318 319.414,-133.228 323.232,-134.722C327.051,-136.216 330.703,-136.963 334.189,-136.963C341.162,-136.963 347.014,-135.178 351.746,-131.609C356.477,-128.04 360.254,-123.516 363.076,-118.037C365.898,-112.559 367.891,-106.624 369.053,-100.232C370.215,-93.84 370.796,-87.822 370.796,-82.178ZM334.189,-74.707C334.189,-76.699 334.065,-78.857 333.816,-81.182C333.567,-83.506 332.986,-85.664 332.073,-87.656C331.16,-89.648 329.915,-91.309 328.337,-92.637C326.76,-93.965 324.727,-94.629 322.236,-94.629C319.58,-94.629 316.965,-94.048 314.392,-92.886C311.819,-91.724 309.37,-90.229 307.046,-88.403C304.722,-86.577 302.563,-84.626 300.571,-82.551C298.579,-80.476 296.836,-78.442 295.342,-76.45L292.852,-54.287C295.508,-50.469 298.745,-47.439 302.563,-45.198C306.382,-42.957 310.698,-41.836 315.513,-41.836C319.165,-41.836 322.195,-42.998 324.602,-45.322C327.009,-47.646 328.918,-50.51 330.33,-53.914C331.741,-57.317 332.737,-60.928 333.318,-64.746C333.899,-68.564 334.189,-71.885 334.189,-74.707Z" style="fill:rgb(17,72,101);fill-rule:nonzero;"/>
            <path d="M503.774,-82.178C503.774,-77.363 503.401,-71.926 502.654,-65.867C501.907,-59.807 500.745,-53.623 499.167,-47.314C497.59,-41.006 495.515,-34.863 492.942,-28.887C490.369,-22.91 487.214,-17.556 483.479,-12.825C479.744,-8.093 475.427,-4.316 470.53,-1.494C465.632,1.328 459.946,2.739 453.472,2.739C446.665,2.739 440.481,1.162 434.919,-1.992C429.358,-5.146 424.585,-9.463 420.601,-14.941C420.103,-10.459 418.276,-6.516 415.122,-3.113C411.968,0.291 407.983,1.992 403.169,1.992C400.347,1.992 397.981,0.581 396.072,-2.241C394.163,-5.063 392.627,-8.674 391.465,-13.074C390.303,-17.473 389.431,-22.329 388.85,-27.642C388.269,-32.954 387.896,-38.101 387.729,-43.081C387.563,-48.062 387.48,-52.544 387.48,-56.528L387.48,-64.995C387.48,-70.64 387.522,-76.284 387.605,-81.929C387.688,-87.573 387.813,-93.301 387.979,-99.111C387.979,-101.934 387.937,-106.167 387.854,-111.812C387.771,-117.456 387.813,-123.723 387.979,-130.613C388.145,-137.502 388.518,-144.558 389.099,-151.78C389.68,-159.001 390.718,-165.601 392.212,-171.577C393.706,-177.554 395.781,-182.451 398.438,-186.27C401.094,-190.088 404.497,-192.08 408.647,-192.246C411.968,-192.246 414.79,-191.084 417.114,-188.76C419.438,-186.436 421.389,-183.364 422.966,-179.546C424.543,-175.728 425.789,-171.453 426.702,-166.721C427.615,-161.99 428.279,-157.258 428.694,-152.527C429.109,-147.795 429.358,-143.313 429.441,-139.08C429.524,-134.846 429.565,-131.401 429.565,-128.745C429.565,-128.247 429.524,-127.126 429.441,-125.383C429.358,-123.64 429.316,-121.772 429.316,-119.78L429.316,-111.812C430.811,-114.966 432.969,-118.037 435.791,-121.025C438.613,-124.014 441.768,-126.67 445.254,-128.994C448.74,-131.318 452.393,-133.228 456.211,-134.722C460.029,-136.216 463.682,-136.963 467.168,-136.963C474.141,-136.963 479.993,-135.178 484.724,-131.609C489.456,-128.04 493.232,-123.516 496.055,-118.037C498.877,-112.559 500.869,-106.624 502.031,-100.232C503.193,-93.84 503.774,-87.822 503.774,-82.178ZM467.168,-74.707C467.168,-76.699 467.043,-78.857 466.794,-81.182C466.545,-83.506 465.964,-85.664 465.051,-87.656C464.138,-89.648 462.893,-91.309 461.316,-92.637C459.739,-93.965 457.705,-94.629 455.215,-94.629C452.559,-94.629 449.944,-94.048 447.371,-92.886C444.797,-91.724 442.349,-90.229 440.024,-88.403C437.7,-86.577 435.542,-84.626 433.55,-82.551C431.558,-80.476 429.814,-78.442 428.32,-76.45L425.83,-54.287C428.486,-50.469 431.724,-47.439 435.542,-45.198C439.36,-42.957 443.677,-41.836 448.491,-41.836C452.144,-41.836 455.173,-42.998 457.581,-45.322C459.988,-47.646 461.897,-50.51 463.308,-53.914C464.719,-57.317 465.715,-60.928 466.296,-64.746C466.877,-68.564 467.168,-71.885 467.168,-74.707Z" style="fill:rgb(17,72,101);fill-rule:nonzero;"/>
            <path d="M565.532,-150.908C565.532,-141.943 565.159,-132.937 564.412,-123.889C563.665,-114.841 563.291,-105.752 563.291,-96.621C563.291,-84.834 563.665,-73.047 564.412,-61.26C565.159,-49.473 565.532,-37.603 565.532,-25.649C565.532,-22.661 565.366,-19.299 565.034,-15.564C564.702,-11.829 563.914,-8.384 562.668,-5.229C561.423,-2.075 559.556,0.581 557.065,2.739C554.575,4.897 551.255,5.977 547.104,5.977C543.12,5.977 539.675,4.026 536.77,0.125C533.865,-3.777 531.458,-8.757 529.548,-14.817C527.639,-20.876 526.062,-27.642 524.817,-35.112C523.572,-42.583 522.659,-49.846 522.078,-56.902C521.497,-63.958 521.082,-70.432 520.833,-76.326C520.583,-82.219 520.459,-86.577 520.459,-89.399C520.459,-92.554 520.583,-97.119 520.833,-103.096C521.082,-109.072 521.621,-115.547 522.451,-122.52C523.281,-129.492 524.402,-136.589 525.813,-143.811C527.224,-151.033 529.092,-157.59 531.416,-163.484C533.74,-169.377 536.521,-174.192 539.758,-177.927C542.996,-181.663 546.855,-183.53 551.338,-183.53C554.99,-183.53 557.771,-182.327 559.68,-179.919C561.589,-177.512 562.959,-174.607 563.789,-171.204C564.619,-167.8 565.117,-164.231 565.283,-160.496C565.449,-156.76 565.532,-153.564 565.532,-150.908Z" style="fill:rgb(17,72,101);fill-rule:nonzero;"/>
            <path d="M688.799,-44.326C688.799,-38.682 687.014,-33.162 683.445,-27.766C679.875,-22.371 675.393,-17.556 669.998,-13.323C664.602,-9.089 658.833,-5.686 652.69,-3.113C646.548,-0.54 640.903,0.747 635.757,0.747C626.958,0.747 619.114,-1.453 612.224,-5.852C605.334,-10.251 599.565,-15.854 594.917,-22.661C590.269,-29.468 586.741,-36.98 584.333,-45.198C581.926,-53.416 580.723,-61.426 580.723,-69.229C580.723,-77.529 581.885,-86.411 584.209,-95.874C586.533,-105.337 590.061,-114.053 594.792,-122.021C599.524,-129.99 605.5,-136.631 612.722,-141.943C619.944,-147.256 628.535,-149.912 638.496,-149.912C644.141,-149.912 649.536,-148.958 654.683,-147.048C659.829,-145.139 664.312,-142.441 668.13,-138.955C671.948,-135.469 675.02,-131.318 677.344,-126.504C679.668,-121.689 680.83,-116.294 680.83,-110.317C680.83,-102.515 679.17,-95.21 675.85,-88.403C672.529,-81.597 668.13,-75.703 662.651,-70.723C657.173,-65.742 650.864,-61.716 643.726,-58.645C636.587,-55.574 629.282,-53.872 621.812,-53.54C622.476,-48.726 624.426,-45.239 627.664,-43.081C630.901,-40.923 634.761,-39.844 639.243,-39.844C642.563,-39.844 645.801,-40.674 648.955,-42.334C652.109,-43.994 655.181,-45.862 658.169,-47.937C661.157,-50.012 664.104,-51.88 667.009,-53.54C669.915,-55.2 672.861,-56.03 675.85,-56.03C679.17,-56.03 682.158,-54.951 684.814,-52.793C687.471,-50.635 688.799,-47.813 688.799,-44.326ZM648.457,-105.337C648.457,-107.495 647.876,-109.736 646.714,-112.061C645.552,-114.385 643.726,-115.547 641.235,-115.547C637.583,-115.547 634.512,-114.592 632.021,-112.683C629.531,-110.774 627.456,-108.367 625.796,-105.461C624.136,-102.556 622.849,-99.443 621.936,-96.123C621.023,-92.803 620.483,-89.731 620.317,-86.909C622.642,-87.407 625.422,-88.071 628.66,-88.901C631.897,-89.731 634.968,-90.852 637.874,-92.263C640.779,-93.674 643.269,-95.459 645.344,-97.617C647.419,-99.775 648.457,-102.349 648.457,-105.337Z" style="fill:rgb(17,72,101);fill-rule:nonzero;"/>
          </g>
        </g>
      </g>
    </g>
    <g transform="matrix(1,0,0,1,-131,-1798.54)">
      <g transform="matrix(1,0,0,1,131.653,-539)">
        <g transform="matrix(1,0,0,1,665.181,2337.02)">
          <path d="M37.4,1.725C59.144,-4.875 74.8,16.786 74.8,37.444C74.8,57.961 57.917,74.844 37.4,74.844C16.883,74.844 0,57.961 0,37.444C0,16.786 15.66,8.32 37.4,1.725Z" style="fill:rgb(12,235,115);fill-rule:nonzero;"/>
        </g>
        <g transform="matrix(-0.966,-0.259,0.259,-0.966,649.365,2447.85)">
          <path d="M29.608,0C45.748,-0 59.029,13.281 59.03,29.421C59.03,45.562 45.748,58.843 29.608,58.843C13.359,58.843 -4.624,51.832 0.187,29.422C4.998,7.012 13.359,0 29.608,0Z" style="fill:rgb(226,5,95);fill-rule:nonzero;"/>
        </g>
        <g transform="matrix(-0.966,-0.259,0.259,-0.966,805.717,2423)">
          <path d="M24.067,0C37.359,0 41.934,11.025 48.134,24.067C54.334,37.109 37.359,48.134 24.067,48.134C10.864,48.134 0,37.27 0,24.067C-0,10.864 10.864,0 24.067,0Z" style="fill:rgb(17,72,101);fill-rule:nonzero;"/>
        </g>
      </g>
    </g>
    <g transform="matrix(1,0,0,1,-131,-1798.54)">
      <g transform="matrix(1,0,0,1,999,1914)">
        <g>
          <path d="M49.284,-72.702C49.284,-70.928 48.592,-69.314 47.208,-67.859C45.825,-66.404 44.157,-65.127 42.206,-64.027C40.254,-62.927 38.249,-62.022 36.191,-61.313C34.133,-60.603 32.43,-60.106 31.082,-59.822C30.514,-54.358 30.071,-48.912 29.751,-43.483C29.432,-38.054 29.272,-32.608 29.272,-27.144C29.272,-24.234 29.343,-21.36 29.485,-18.521C29.627,-15.683 29.698,-12.844 29.698,-10.006C29.698,-8.729 29.574,-7.327 29.326,-5.801C29.077,-4.276 28.652,-2.839 28.048,-1.49C27.445,-0.142 26.611,0.993 25.547,1.916C24.482,2.839 23.17,3.3 21.608,3.3C19.763,3.3 18.291,2.785 17.191,1.756C16.091,0.727 15.239,-0.532 14.636,-2.022C14.033,-3.513 13.625,-5.092 13.412,-6.759C13.199,-8.427 13.093,-9.935 13.093,-11.283C12.951,-15.541 12.844,-19.817 12.773,-24.11C12.702,-28.403 12.667,-32.714 12.667,-37.043C12.667,-40.662 12.685,-44.21 12.72,-47.688C12.756,-51.165 12.773,-54.713 12.773,-58.332C11.78,-58.19 10.769,-58.084 9.74,-58.013C8.711,-57.942 7.664,-57.906 6.6,-57.906C5.748,-57.906 4.63,-57.995 3.247,-58.172C1.863,-58.35 0.532,-58.669 -0.745,-59.13C-2.022,-59.592 -3.122,-60.23 -4.045,-61.046C-4.967,-61.862 -5.429,-62.909 -5.429,-64.187C-5.429,-66.315 -4.595,-68.178 -2.927,-69.775C-1.26,-71.372 0.869,-72.755 3.459,-73.926C6.05,-75.097 8.924,-76.091 12.082,-76.907C15.239,-77.723 18.362,-78.361 21.449,-78.823C24.536,-79.284 27.374,-79.621 29.964,-79.834C32.555,-80.047 34.559,-80.153 35.979,-80.153C37.327,-80.153 38.764,-80.1 40.29,-79.994C41.815,-79.887 43.252,-79.586 44.601,-79.089C45.949,-78.592 47.067,-77.847 47.954,-76.854C48.841,-75.86 49.284,-74.476 49.284,-72.702Z" style="fill:rgb(226,0,95);fill-rule:nonzero;"/>
          <path d="M86.221,-18.947C86.221,-16.535 85.458,-14.175 83.932,-11.869C82.406,-9.562 80.49,-7.504 78.184,-5.695C75.878,-3.885 73.412,-2.431 70.786,-1.331C68.16,-0.231 65.748,0.319 63.548,0.319C59.787,0.319 56.434,-0.621 53.489,-2.501C50.544,-4.382 48.078,-6.777 46.091,-9.687C44.104,-12.596 42.596,-15.807 41.567,-19.32C40.538,-22.833 40.023,-26.257 40.023,-29.592C40.023,-33.14 40.52,-36.937 41.514,-40.981C42.507,-45.026 44.015,-48.752 46.038,-52.158C48.06,-55.564 50.615,-58.403 53.702,-60.674C56.789,-62.945 60.461,-64.08 64.719,-64.08C67.132,-64.08 69.438,-63.672 71.638,-62.856C73.838,-62.04 75.754,-60.887 77.386,-59.396C79.018,-57.906 80.331,-56.132 81.324,-54.074C82.318,-52.016 82.814,-49.71 82.814,-47.155C82.814,-43.82 82.105,-40.698 80.686,-37.788C79.266,-34.879 77.386,-32.359 75.044,-30.23C72.702,-28.102 70.006,-26.381 66.954,-25.068C63.903,-23.755 60.78,-23.028 57.587,-22.886C57.871,-20.828 58.705,-19.338 60.088,-18.415C61.472,-17.493 63.122,-17.031 65.038,-17.031C66.457,-17.031 67.841,-17.386 69.189,-18.096C70.538,-18.805 71.851,-19.604 73.128,-20.491C74.405,-21.378 75.665,-22.176 76.907,-22.886C78.149,-23.595 79.408,-23.95 80.686,-23.95C82.105,-23.95 83.382,-23.489 84.518,-22.566C85.653,-21.644 86.221,-20.438 86.221,-18.947ZM68.977,-45.026C68.977,-45.949 68.728,-46.907 68.231,-47.9C67.735,-48.894 66.954,-49.391 65.89,-49.391C64.328,-49.391 63.016,-48.983 61.951,-48.167C60.887,-47.35 60,-46.321 59.29,-45.08C58.58,-43.838 58.03,-42.507 57.64,-41.088C57.25,-39.669 57.019,-38.356 56.948,-37.149C57.942,-37.362 59.13,-37.646 60.514,-38.001C61.898,-38.356 63.211,-38.835 64.453,-39.438C65.694,-40.041 66.759,-40.804 67.646,-41.727C68.533,-42.649 68.977,-43.749 68.977,-45.026Z" style="fill:rgb(226,0,95);fill-rule:nonzero;"/>
          <path d="M135.079,-18.947C135.079,-16.535 134.316,-14.175 132.791,-11.869C131.265,-9.562 129.349,-7.504 127.042,-5.695C124.736,-3.885 122.27,-2.431 119.645,-1.331C117.019,-0.231 114.606,0.319 112.406,0.319C108.645,0.319 105.292,-0.621 102.347,-2.501C99.402,-4.382 96.936,-6.777 94.949,-9.687C92.962,-12.596 91.454,-15.807 90.425,-19.32C89.396,-22.833 88.882,-26.257 88.882,-29.592C88.882,-33.14 89.379,-36.937 90.372,-40.981C91.366,-45.026 92.874,-48.752 94.896,-52.158C96.918,-55.564 99.473,-58.403 102.56,-60.674C105.647,-62.945 109.319,-64.08 113.577,-64.08C115.99,-64.08 118.296,-63.672 120.496,-62.856C122.696,-62.04 124.612,-60.887 126.244,-59.396C127.876,-57.906 129.189,-56.132 130.183,-54.074C131.176,-52.016 131.673,-49.71 131.673,-47.155C131.673,-43.82 130.963,-40.698 129.544,-37.788C128.125,-34.879 126.244,-32.359 123.902,-30.23C121.561,-28.102 118.864,-26.381 115.813,-25.068C112.761,-23.755 109.639,-23.028 106.445,-22.886C106.729,-20.828 107.563,-19.338 108.947,-18.415C110.331,-17.493 111.98,-17.031 113.896,-17.031C115.316,-17.031 116.7,-17.386 118.048,-18.096C119.396,-18.805 120.709,-19.604 121.986,-20.491C123.264,-21.378 124.523,-22.176 125.765,-22.886C127.007,-23.595 128.267,-23.95 129.544,-23.95C130.963,-23.95 132.241,-23.489 133.376,-22.566C134.511,-21.644 135.079,-20.438 135.079,-18.947ZM117.835,-45.026C117.835,-45.949 117.587,-46.907 117.09,-47.9C116.593,-48.894 115.813,-49.391 114.748,-49.391C113.187,-49.391 111.874,-48.983 110.81,-48.167C109.745,-47.35 108.858,-46.321 108.148,-45.08C107.439,-43.838 106.889,-42.507 106.499,-41.088C106.108,-39.669 105.878,-38.356 105.807,-37.149C106.8,-37.362 107.989,-37.646 109.373,-38.001C110.756,-38.356 112.069,-38.835 113.311,-39.438C114.553,-40.041 115.617,-40.804 116.504,-41.727C117.391,-42.649 117.835,-43.749 117.835,-45.026Z" style="fill:rgb(226,0,95);fill-rule:nonzero;"/>
        </g>
      </g>
    </g>
  </g>
</svg>
