<svg xmlns="http://www.w3.org/2000/svg" width="1005" height="358.458" viewBox="0 0 1005 358.458"><defs><style>.a,.c{fill:#0ceb73;}.a{font-size:254px;}.a,.b,.f{font-family:Chewy-Regular, Chewy;}.b,.e{fill:#114865;}.b{font-size:255px;}.d{fill:#e2055f;}.f{fill:#e2005f;font-size:109px;}</style></defs><g transform="translate(-131 -1798.542)"><g transform="translate(61.49 1759)"><text class="a" transform="translate(69.51 320)"><tspan x="0" y="0">my</tspan></text><text class="b" transform="translate(369.51 321)"><tspan x="0" y="0">Bubble</tspan></text></g><g transform="translate(131.653 -539)"><path class="c" d="M37.4,1.725c21.744-6.6,37.4,15.061,37.4,35.719A37.4,37.4,0,1,1,0,37.444C0,16.786,15.66,8.32,37.4,1.725Z" transform="translate(665.181 2337.023)"/><path class="d" d="M29.608,0a29.421,29.421,0,0,1,0,58.843c-16.249,0-34.232-7.011-29.421-29.421S13.359,0,29.608,0Z" transform="matrix(-0.966, -0.259, 0.259, -0.966, 649.365, 2447.851)"/><path class="e" d="M24.067,0C37.359,0,41.934,11.025,48.134,24.067S37.359,48.134,24.067,48.134A24.067,24.067,0,0,1,24.067,0Z" transform="matrix(-0.966, -0.259, 0.259, -0.966, 805.717, 2423)"/></g><text class="f" transform="translate(999 1914)"><tspan x="0" y="0">Tee</tspan>
</text>
</g>
</svg>
